<?xml version="1.0" encoding="UTF-8" standalone="no"?>
<!-- Generator: Adobe Illustrator 15.1.0, SVG Export Plug-In . SVG Version: 6.00 Build 0)  -->

<svg
   xmlns:dc="http://purl.org/dc/elements/1.1/"
   xmlns:cc="http://creativecommons.org/ns#"
   xmlns:rdf="http://www.w3.org/1999/02/22-rdf-syntax-ns#"
   xmlns:svg="http://www.w3.org/2000/svg"
   xmlns="http://www.w3.org/2000/svg"
   xmlns:sodipodi="http://sodipodi.sourceforge.net/DTD/sodipodi-0.dtd"
   xmlns:inkscape="http://www.inkscape.org/namespaces/inkscape"
   version="1.1"
   id="Layer_1"
   x="0px"
   y="0px"
   width="405"
   height="98"
   viewBox="0 0 405 98"
   enable-background="new 0 0 100 79.5"
   xml:space="preserve"
   inkscape:version="0.48.4 r9939"
   sodipodi:docname="dogtalk-logo.svg"><metadata
   id="metadata17"><rdf:RDF><cc:Work
       rdf:about=""><dc:format>image/svg+xml</dc:format><dc:type
         rdf:resource="http://purl.org/dc/dcmitype/StillImage" /><dc:title></dc:title></cc:Work></rdf:RDF></metadata><defs
   id="defs15" /><sodipodi:namedview
   pagecolor="#ffffff"
   bordercolor="#666666"
   borderopacity="1"
   objecttolerance="10"
   gridtolerance="10"
   guidetolerance="10"
   inkscape:pageopacity="0"
   inkscape:pageshadow="2"
   inkscape:window-width="1364"
   inkscape:window-height="708"
   id="namedview13"
   showgrid="false"
   inkscape:zoom="2.9685535"
   inkscape:cx="195.7201"
   inkscape:cy="44.484235"
   inkscape:window-x="0"
   inkscape:window-y="27"
   inkscape:window-maximized="0"
   inkscape:current-layer="Layer_1"
   fit-margin-top="0"
   fit-margin-left="0"
   fit-margin-right="0"
   fit-margin-bottom="0" />
<path
   d="m 45.810348,31.180185 h -34.142 l -6.4830001,-3.677 c -1.668,-0.946 -3.787,-0.361 -4.73299996,1.308 -0.946,1.668 -0.36,3.788 1.30799996,4.734 l 7.962,4.514 v 36.178 c 0,3.067 2.4870001,5.555 5.5550001,5.555 3.069,0 5.556,-2.487 5.556,-5.555 v -14.654 l 10.512,17.505 c 0,0.003 10e-4,0.005 0.003,0.007 1.578,2.63 4.991,3.483 7.622,1.902 2.63,-1.58 3.483,-4.992 1.904,-7.623 l -9.126,-15.193 h 21.029 v 18.056 c 0,3.067 2.488,5.555 5.556,5.555 3.068,0 5.557,-2.487 5.557,-5.555 v -18.184 c 0.806,-0.288 1.388,-1.051 1.388,-1.956 v -14.583 l 0.027,-0.03 -19.495,-8.304 z"
   id="path3"
   inkscape:connector-curvature="0" />
<rect
   x="86.109352"
   y="22.847185"
   width="13.89"
   height="2.777"
   id="rect5" />
<rect
   x="63.985672"
   y="56.01915"
   transform="matrix(0.86729387,-0.49779648,0.49779648,0.86729387,0,0)"
   width="13.890099"
   height="2.7770195"
   id="rect7" />
<rect
   x="28.218792"
   y="74.180191"
   transform="matrix(0.49659117,-0.86798457,0.86798457,0.49659117,0,0)"
   width="13.889247"
   height="2.7780495"
   id="rect9" />
<path
   d="m 70.832348,25.624185 5.557,-9.722 -6.946,-11.1109999 -12.597,14.0799999 -6.847,-1.58 1.804,7.217 -3.042,3.4 19.489,8.302 9.526,-10.586 h -6.944 z m -7.639,-4.166 c -1.15,0 -2.084,-0.932 -2.084,-2.083 0,-1.151 0.934,-2.083 2.084,-2.083 1.15,0 2.083,0.932 2.083,2.083 0,1.15 -0.932,2.083 -2.083,2.083 z"
   id="path11"
   inkscape:connector-curvature="0" />
<g
   style="font-size:40px;font-style:normal;font-variant:normal;font-weight:bold;font-stretch:normal;line-height:125%;letter-spacing:0px;word-spacing:0px;fill:#000000;fill-opacity:1;stroke:none;font-family:Linux Libertine O;-inkscape-font-specification:Linux Libertine O Bold"
   id="text2994"><path
     d="m 120.6275,67.654997 0,-34.85 c 0,-4.674996 2.21,-6.375 5.27,-6.375 16.74498,0 18.615,14.365012 18.615,27.2 0,15.469984 -9.26501,20.74 -15.725,20.74 -5.95,0 -8.16,-1.020006 -8.16,-6.715 m -5.865,10.115 c 3.4,0 10.37,0.17 13.77,0.17 7.39499,0 15.895,-1.870006 21.93,-7.14 4.07999,-3.569997 6.885,-10.625009 6.885,-19.295 0,-15.724985 -10.20002,-28.645 -31.11,-28.645 -4.505,0 -8.075,0.085 -11.475,0.085 -3.4,0 -13.09,-0.17 -13.09,-0.17 -0.85,0.509999 -0.85,2.38 0,2.89 4.67499,0.254999 7.055,0.595007 7.055,7.65 l 0,34.085 c 0,7.054993 -2.38001,7.395 -7.055,7.65 -0.85,0.509999 -0.85,2.38 0,2.89 0,0 9.69,-0.17 13.09,-0.17"
     style="font-size:85px;font-family:Linux Libertine O;-inkscape-font-specification:Linux Libertine O Bold"
     id="path3106" /><path
     d="m 183.55937,43.599997 c 5.78,0 9.69,6.885011 9.69,18.53 0,10.284989 -3.995,12.92 -7.055,12.92 -6.96999,0 -9.69,-10.455007 -9.69,-16.745 0,-7.819993 1.36001,-14.705 7.055,-14.705 m -18.955,16.575 c 0,11.134989 8.75501,18.445 20.23,18.445 5.95,0 10.96501,-1.700004 14.535,-4.845 4.25,-3.824997 5.78,-9.605005 5.78,-14.365 0,-11.049989 -7.65001,-19.38 -20.23,-19.38 -7.05499,0 -12.325,2.465003 -15.725,6.29 -3.22999,3.739996 -4.59,8.840005 -4.59,13.855"
     style="font-size:85px;font-family:Linux Libertine O;-inkscape-font-specification:Linux Libertine O Bold"
     id="path3108" /><path
     d="m 232.92578,53.289997 c 0,8.159991 -2.38,9.18 -4.59,9.18 -5.27,0 -5.95,-6.290005 -5.95,-10.625 0,-6.289994 1.53,-8.585 4.845,-8.585 3.995,0 5.695,3.315006 5.695,10.03 m -9.775,26.605 c 6.45999,0 19.125,0.255004 19.125,4.76 0,3.144996 -1.445,6.545001 -4.165,8.16 -2.635,1.444998 -6.97,1.615 -10.2,1.615 -5.60999,0 -9.435,-4.165005 -9.435,-8.5 0,-2.889997 0,-4.845002 0.935,-6.545 0.85,0.339999 1.955,0.51 3.74,0.51 m 24.82,-35.615 c 2.38,0 3.74,-1.020004 3.74,-4.165 0,-1.614999 -2.21,-4.08 -5.44,-4.08 -3.74,0 -8.67,2.805002 -11.135,5.015 -1.53,-0.85 -3.315,-1.02 -7.14,-1.02 -3.74,0 -7.225,0.935001 -10.03,2.72 -3.485,2.294997 -5.78,5.525004 -5.78,9.86 0,4.164995 2.465,8.670002 6.545,10.965 -2.635,2.209997 -6.715,6.715001 -6.715,8.415 0,1.699998 0.255,2.635001 1.105,3.91 0.765,1.189998 1.785,1.87 3.485,2.38 -3.655,2.209997 -7.395,7.055001 -7.395,8.5 0,3.144996 0.935,6.800001 3.315,8.415 3.23,2.379997 8.925,2.805 13.005,2.805 11.81499,0 25.33,-6.20501 25.33,-15.555 0,-1.784999 -0.85,-5.355003 -4.25,-7.735 -3.315,-2.209998 -16.15001,-2.805 -22.355,-2.805 -1.53,0 -3.825,-0.170004 -3.825,-3.57 0,-1.359999 0.765,-2.550001 1.19,-3.57 1.785,0.849999 3.655,0.935 6.29,0.935 4.335,0 8.245,-1.020003 11.22,-3.655 2.38,-2.124998 4.165,-5.185004 4.165,-9.01 0,-4.759996 -2.38,-7.905003 -5.27,-10.285 0.68,-0.85 3.485,-2.38 4.335,-2.38 0.765,0 1.36,0.51 1.615,1.02 0.34,1.104999 1.87,2.89 3.995,2.89"
     style="font-size:85px;font-family:Linux Libertine O;-inkscape-font-specification:Linux Libertine O Bold"
     id="path3110" /><path
     d="m 257.95695,40.879997 c -1.19,0.085 -2.55,0.340001 -3.57,1.275 l 0,2.465 c 0,0.424999 0.085,0.51 0.425,0.51 l 5.525,0 c -0.255,8.584991 -0.255,19.465004 -0.255,23.715 0,2.974997 0.68,5.865001 2.55,7.395 1.87,1.699998 5.015,2.38 7.055,2.38 4.675,0 9.86,-2.380003 11.56,-4.76 0,-1.019999 -0.51,-1.530001 -1.53,-2.38 -1.105,0.849999 -3.23,1.19 -4.845,1.19 -1.87,0 -3.74,-1.445005 -3.74,-5.695 0,-4.249996 -0.085,-13.345009 -0.085,-21.845 l 8.585,0 c 0.85,0 2.04,-0.340001 2.04,-1.105 l 0,-2.635 c 0,-0.34 -0.255,-0.51 -0.68,-0.51 l -9.945,0 0.085,-2.89 c 0.17,-5.609995 0.425,-9.605 0.425,-9.605 0,-0.51 -0.255,-0.68 -0.68,-0.68 -0.595,0 -3.825,0.935 -5.1,1.445 -1.445,0.594999 -3.995,1.105 -4.505,1.87 -0.595,0.849999 -0.935,3.145006 -0.935,9.86 l -2.38,0"
     style="font-size:85px;font-family:Linux Libertine O;-inkscape-font-specification:Linux Libertine O Bold"
     id="path3112" /><path
     d="m 308.05781,73.689997 c 0.595,3.399996 2.89,4.93 6.63,4.93 4.675,0 7.99,-1.785003 11.135,-4.76 -0.255,-0.934999 -0.595,-1.615001 -1.53,-2.38 -1.105,0.849999 -1.955,1.19 -3.57,1.19 -1.87,0 -2.38,-1.530005 -2.38,-5.695 l 0.17,-12.24 c 0,-12.239988 -7.56501,-14.705 -14.535,-14.705 -6.20499,0 -15.81,3.570005 -15.81,9.18 0,2.464997 1.02,4.335 4.42,4.335 2.975,0 5.27,-1.870002 5.27,-3.995 0,-1.104999 -0.595,-2.550002 -0.425,-3.995 0.17,-0.934999 0.765,-1.955 3.655,-1.955 3.57,0 6.545,1.53001 6.545,12.325 l -5.695,1.785 c -9.00999,2.804997 -15.215,5.270006 -15.215,11.985 0,5.864994 3.23001,8.925 10.625,8.925 2.465,0 7.395,-2.720003 10.2,-4.93 l 0.51,0 m -0.425,-14.45 0,11.22 c -2.125,1.699998 -4.25,3.06 -5.78,3.06 -3.655,0 -4.93,-2.465003 -4.93,-5.1 0,-3.144997 0.25501,-5.695002 6.29,-7.735 l 4.42,-1.445"
     style="font-size:85px;font-family:Linux Libertine O;-inkscape-font-specification:Linux Libertine O Bold"
     id="path3114" /><path
     d="m 334.48086,66.974997 c 0,7.054993 -1.36001,7.82 -6.545,8.075 -0.51,0.509999 -0.51,2.38 0,2.89 3.56999,-0.085 7.31,-0.17 12.07,-0.17 4.67499,0 8.415,0.085 12.07,0.17 0.51,-0.51 0.51,-2.380001 0,-2.89 -5.185,-0.255 -6.545,-1.020007 -6.545,-8.075 l 0,-38.76 c 0,-5.524995 0.255,-8.67 0.255,-8.67 0,-0.765 -0.595,-1.105 -1.36,-1.105 -3.145,1.019999 -9.94501,1.955 -15.98,2.21 -0.255,1.019999 -0.17,1.955 0.255,2.72 5.35499,0.424999 5.78,0.595005 5.78,6.375 l 0,37.23"
     style="font-size:85px;font-family:Linux Libertine O;-inkscape-font-specification:Linux Libertine O Bold"
     id="path3116" /><path
     d="m 362.03945,66.974997 c 0,7.054993 -1.36,7.82 -6.545,8.075 -0.51,0.509999 -0.51,2.38 0,2.89 3.57,-0.085 7.31001,-0.17 12.07,-0.17 3.655,0 7.48,0.085 9.52,0.17 0.51,-0.51 0.51,-2.380001 0,-2.89 -2.635,-0.255 -3.995,-1.020007 -3.995,-8.075 l 0,-6.97 c 2.38,0 4.93,0.340001 5.865,1.615 1.955,2.889997 4.335,6.460003 5.78,9.52 1.105,2.379997 1.36,3.145001 1.36,4.42 l 0,2.21 0.17,0.17 c 0,0 3.825,-0.17 6.8,-0.17 3.485,0 8.245,0.085 11.39,0.17 0.51,-0.51 0.51,-2.380001 0,-2.89 -3.315,-0.255 -5.185,-0.085 -7.735,-3.91 l -9.86,-14.535 c -0.425,-0.595 -0.68,-1.275001 -0.255,-1.7 l 4.165,-4.59 c 2.72,-3.059997 5.10001,-5.950001 11.56,-6.715 0.51,-0.51 0.51,-2.380001 0,-2.89 -1.87,0.085 -7.225,0.17 -9.435,0.17 -3.145,0 -7.14,-0.085 -10.285,-0.17 -0.51,0.509999 -0.51,2.38 0,2.89 4.59,0.339999 5.865,1.190003 3.485,4.505 -1.87,2.634997 -3.74,4.675001 -5.44,6.12 -1.105,0.934999 -5.015,2.38 -7.565,2.38 l 0,-28.39 c 0,-5.524995 0.255,-8.67 0.255,-8.67 0,-0.765 -0.595,-1.105 -1.36,-1.105 -3.145,1.019999 -9.945,1.955 -15.98,2.21 -0.255,1.019999 -0.17,1.955 0.255,2.72 5.355,0.424999 5.78,0.595005 5.78,6.375 l 0,37.23"
     style="font-size:85px;font-family:Linux Libertine O;-inkscape-font-specification:Linux Libertine O Bold"
     id="path3118" /></g>

</svg>