<?xml version="1.0" encoding="UTF-8" standalone="no"?>
<!-- Generator: Adobe Illustrator 15.1.0, SVG Export Plug-In . SVG Version: 6.00 Build 0)  -->

<svg
   xmlns:dc="http://purl.org/dc/elements/1.1/"
   xmlns:cc="http://creativecommons.org/ns#"
   xmlns:rdf="http://www.w3.org/1999/02/22-rdf-syntax-ns#"
   xmlns:svg="http://www.w3.org/2000/svg"
   xmlns="http://www.w3.org/2000/svg"
   xmlns:sodipodi="http://sodipodi.sourceforge.net/DTD/sodipodi-0.dtd"
   xmlns:inkscape="http://www.inkscape.org/namespaces/inkscape"
   version="1.1"
   id="Layer_1"
   x="0px"
   y="0px"
   width="405"
   height="98"
   viewBox="0 0 405 98"
   enable-background="new 0 0 100 79.5"
   xml:space="preserve"
   inkscape:version="0.48.4 r9939"
   sodipodi:docname="dogtalk-logo.svg"><metadata
   id="metadata17"><rdf:RDF><cc:Work
       rdf:about=""><dc:format>image/svg+xml</dc:format><dc:type
         rdf:resource="http://purl.org/dc/dcmitype/StillImage" /></cc:Work></rdf:RDF></metadata><defs
   id="defs15" /><sodipodi:namedview
   pagecolor="#ffffff"
   bordercolor="#666666"
   borderopacity="1"
   objecttolerance="10"
   gridtolerance="10"
   guidetolerance="10"
   inkscape:pageopacity="0"
   inkscape:pageshadow="2"
   inkscape:window-width="1435"
   inkscape:window-height="935"
   id="namedview13"
   showgrid="false"
   inkscape:zoom="2.9685535"
   inkscape:cx="195.7201"
   inkscape:cy="44.484235"
   inkscape:window-x="22"
   inkscape:window-y="27"
   inkscape:window-maximized="0"
   inkscape:current-layer="Layer_1"
   fit-margin-top="0"
   fit-margin-left="0"
   fit-margin-right="0"
   fit-margin-bottom="0" />
<path
   d="m 45.810348,31.180185 h -34.142 l -6.4830001,-3.677 c -1.668,-0.946 -3.787,-0.361 -4.73299996,1.308 -0.946,1.668 -0.36,3.788 1.30799996,4.734 l 7.962,4.514 v 36.178 c 0,3.067 2.4870001,5.555 5.5550001,5.555 3.069,0 5.556,-2.487 5.556,-5.555 v -14.654 l 10.512,17.505 c 0,0.003 10e-4,0.005 0.003,0.007 1.578,2.63 4.991,3.483 7.622,1.902 2.63,-1.58 3.483,-4.992 1.904,-7.623 l -9.126,-15.193 h 21.029 v 18.056 c 0,3.067 2.488,5.555 5.556,5.555 3.068,0 5.557,-2.487 5.557,-5.555 v -18.184 c 0.806,-0.288 1.388,-1.051 1.388,-1.956 v -14.583 l 0.027,-0.03 -19.495,-8.304 z"
   id="path3"
   inkscape:connector-curvature="0" />
<rect
   x="86.109352"
   y="22.847185"
   width="13.89"
   height="2.777"
   id="rect5" />
<rect
   x="63.985672"
   y="56.01915"
   transform="matrix(0.86729387,-0.49779648,0.49779648,0.86729387,0,0)"
   width="13.890099"
   height="2.7770195"
   id="rect7" />
<rect
   x="28.218792"
   y="74.180191"
   transform="matrix(0.49659117,-0.86798457,0.86798457,0.49659117,0,0)"
   width="13.889247"
   height="2.7780495"
   id="rect9" />
<path
   d="m 70.832348,25.624185 5.557,-9.722 -6.946,-11.1109999 -12.597,14.0799999 -6.847,-1.58 1.804,7.217 -3.042,3.4 19.489,8.302 9.526,-10.586 h -6.944 z m -7.639,-4.166 c -1.15,0 -2.084,-0.932 -2.084,-2.083 0,-1.151 0.934,-2.083 2.084,-2.083 1.15,0 2.083,0.932 2.083,2.083 0,1.15 -0.932,2.083 -2.083,2.083 z"
   id="path11"
   inkscape:connector-curvature="0" />
<text
   xml:space="preserve"
   style="font-size:40px;font-style:normal;font-variant:normal;font-weight:bold;font-stretch:normal;line-height:125%;letter-spacing:0px;word-spacing:0px;fill:#000000;fill-opacity:1;stroke:none;font-family:Linux Libertine O;-inkscape-font-specification:Linux Libertine O Bold"
   x="99.037498"
   y="77.769997"
   id="text2994"
   sodipodi:linespacing="125%"><tspan
     sodipodi:role="line"
     id="tspan2996"
     x="99.037498"
     y="77.769997"
     style="font-size:85px;font-style:normal;font-variant:normal;font-weight:bold;font-stretch:normal;font-family:Linux Libertine O;-inkscape-font-specification:Linux Libertine O Bold">Dogtalk</tspan></text>

</svg>